<?xml version="1.0" encoding="UTF-8"?>
<svg id="Layer_2" data-name="Layer 2" xmlns="http://www.w3.org/2000/svg" viewBox="0 0 595.61 130.38">
  <defs>
    <style>
      .cls-1 {
        fill: #3b7237;
      }
    </style>
  </defs>
  <g id="Layer_1-2" data-name="Layer 1">
    <g>
      <path class="cls-1" d="M24.16,44.9c9.31,4.08,17.96,12.04,20.31,17.81,5.63,16.88,10.38,34.2,15.7,51.02.67,2.12,2.63,4.81,2.63,6.88s-4.33,2.22-14.29-.92c-7.62-2.4-11.38-4.18-13.07-5.1-1.69-.93-2.26-1.62-2.26-2.66,0-.56.28-1.3.28-1.96,0-.56-.09-1.35-.19-1.77-.64-2.28-.96-3.42-1.6-5.71-5.42-2.16-8.12-3.34-13.54-5.88-.53,1.37-.79,2.05-1.32,3.42-.38.86-.56,1.61-.56,2.55,0,.75.19,2.07.19,2.53,0,.66-.94.96-1.79.64-.85-.32-2.63-.9-6.11-2.72-4.42-2.31-6.02-3.37-7.15-4.17-.73-.52-1.41-1.18-1.41-1.84,0-.75.76-.97,1.32-2.07,6.01-11.93,11.48-26.57,15.89-39.6.91-2.68,1.42-5.27,1.69-7.57.29-2.49,2.35-4.16,5.27-2.88ZM25.01,72.35c-1.54,6.59-2.31,9.88-3.85,16.43,3.01,1.37,4.51,2.02,7.52,3.27-1.47-7.87-2.2-11.81-3.67-19.7Z"/>
      <path class="cls-1" d="M94.21,114.7c4.7.54,9.12-3.8,11.56-7.3.47-.25.94-.5,1.69-.45,1.88.12,3.38,6.59,3.38,12.23,0,6.68-3.95,11.39-9.59,10.9-5.36-.47-13.45-2.43-17.77-3.12-5.87-.93-8.8-1.48-14.67-2.78-1.41-.31-2.44-1.21-2.44-2.15,0-3.2,1.03-2.96,1.03-6.53,0-13.01,0-26.01,0-39.02,0-3.76-2.49-8.78-3.01-10.2-1.27-3.47,5.64-7.2,14.29-5.66,7.62,1.36,14.2,4.01,17.21,7.35-1.22,1.47-1.69,4.61-1.69,8.46v38.27Z"/>
      <path class="cls-1" d="M142.53,116.02c4.7-.25,9.12-5.3,11.56-9.17.47-.32.94-.65,1.69-.71,1.88-.17,3.38,6.07,3.38,11.71,0,6.68-3.95,11.98-9.59,12.4-5.36.39-13.45-.19-17.77-.11-5.87.11-8.8.1-14.67-.07-1.41-.04-2.44-.74-2.44-1.68,0-3.2,1.03-3.16,1.03-6.73,0-13.01,0-26.01,0-39.02,0-3.76-2.51-8.44-3.01-9.62-1.34-3.19,5.64-8.33,14.29-8.36,7.62-.03,14.2,1.52,17.21,4.35-1.22,1.67-1.69,4.89-1.69,8.74v38.27Z"/>
      <path class="cls-1" d="M190.95,88.21c3.85-.68,8.56-3.17,10.62-3.58,1.6-.31,3.29,1.6,3.29,3.48,0,3.29-1.6,9.54-3.57,9.93-.38.07-.66-.06-.94-.29-2.16-1.46-5.64-.99-9.4-.33,0,5.15,0,7.73,0,12.88,6.58-1.16,12.22-5.3,14.67-9.46.38-.27.75-.44,1.13-.51,1.88-.39,3.38,4.18,3.38,9.73,0,6.86-2.36,10.4-4.8,11.24-4.09,1.43-12.98,3.52-22.38,5.01-9.4,1.49-15.89,1.67-18.81,1.62-.94.01-1.41-.69-1.41-1.82,0-1.5,1.41-10.03,1.41-16.14v-26.51c0-6.11-.85-11.94-2.44-14.49,0-1.88,2.74-4.04,6.58-5.08,5.63-1.53,11.38-2.47,17.02-3.39,5.83-.95,11.56-1.91,17.39-2.22,2.16-.43,6.39,2.17,6.39,7.16,0,8.65-3.2,14.3-4.23,14.51-.56.11-1.5-.17-2.07-.71-1.22-1.26-6.39-2.97-11.85-2.76v11.75Z"/>
      <path class="cls-1" d="M258.65,79.83c4.89,7.42,15.42,16.71,18.9,18.36,0,4.42-8.37,9.31-13.73,10.78-4.89,1.34-9.78,1.43-11.28.52-2.82-1.69-8.18-13.27-10.34-22.87v7.62c0,8.74,1.22,14.73,1.22,16.61,0,.85-.85,1.56-1.79,2.06-1.75.94-5.83,2.44-12.51,4.04-6.96,1.67-11.86,2.18-13.45,2.16-.84,0-1.32-.56-1.32-1.69,0-1.5,1.03-10.29,1.03-16.4,0-10.49,0-15.74,0-26.23,0-6.11-.66-10.95-1.97-13.48,1.32-3.29,8.09-8.16,15.7-9.99,5.19-1.25,7.79-1.9,12.98-3.22,9.75-2.51,29.14-4.37,29.71,9.4.38,9.19-5.74,18.26-13.16,22.34ZM242.19,62.83v18.43c2.82-1.95,6.58-6.13,6.58-11.58,0-4.23-2.82-6.78-6.58-6.85Z"/>
      <path class="cls-1" d="M335.27,35.52c0,7.9-5.36,14.72-11.85,16.53-4.23,1.18-6.96.83-7.99-.1.47-1.54,1.03-3.87,1.03-5.84,0-2.73-1.69-4.22-4.51-3.42-3.2.91-6.77,7.85-6.77,18.48,0,12.79,3.48,20.07,7.15,19.03,2.54-.72,3.95-3.47,3.95-6.48s-.47-5.79-1.69-5.44c-1.41.4-2.07-1.76-2.07-3.36s1.03-4.05,2.73-4.53c6.24-1.77,9.36-2.65,15.61-4.36,4.33-1.19,6.89,2.57,6.86,8.75-.05,14.91-13.5,27.04-26.89,30.81-19.86,5.6-32.8-7.21-32.44-27.05.35-19.41,16.82-35.87,34.69-41.01,11.14-3.2,22.19-2.43,22.19,8.01Z"/>
      <path class="cls-1" d="M351.53,18.88c7.43-1.92,15.43-1.3,16.92,3.69,2.07,6.92,3.38,17.07,4.89,25.09,2.54-5.95,3.67-11.18,3.67-17.67,0-4.61-2.07-8.38-5.08-10.68,3.48-5.23,9.68-9.67,17.77-11.32,8.37-1.71,14.34,3.78,14.01,11.33-.61,14.02-13.37,24.9-18.8,37.81v3.76c0,6.77,1.13,10.01,1.13,11.89,0,.85-.76,1.58-1.79,1.98-2.32.89-6.02,2.23-11.85,3.58-6.02,1.4-12.45,2.38-13.92,2.42-.92.02-1.32-.52-1.32-1.64,0-1.5.94-5.5.94-11.61,0-1.65,0-2.48,0-4.14-2.22-10.16-9.45-19.47-15.7-27.52-1.5-1.95-3.67-4.56-5.64-5.82,0-3.95,5.74-8.82,14.76-11.15Z"/>
      <path class="cls-1" d="M445.36,21c10.4,5.53,24.41,13.57,24.73,26.04.35,14.07-16.14,19.57-28.49,20.8-7.57.76-23.58.37-24.16-9.66-.34-5.92,5.36-10.58,11.38-11.3,3.1-.37,6.77.84,7.99,2.41-.47,1.27-.94,3.39-.94,5.27,0,2.26,2.07,4.21,4.23,4.01,2.26-.2,4.61-2.36,4.61-6.03,0-3.38-2.16-6.05-5.27-7.36-10.22-4.05-21.79-11.84-21.53-23.37.28-12.21,15.05-21.03,26.89-21.75,12.31-.74,21.44,4.39,21.44,11.35,0,5.74-4.51,9.44-9.78,9.67-3.38.14-6.21-1.56-6.86-2.74.38-.96.47-2.47.47-3.88,0-3.2-2.26-5.22-4.61-5.04-2.54.19-4.04,2.21-4.04,4.56,0,3.01,1.69,5.68,3.95,7.01Z"/>
      <path class="cls-1" d="M518.79,6.85c3.38,1.17,8.09,5.32,8.09,9.17,0,3.2-1.13,6.42-2.45,8.22-7.25,9.85-14.83,19.5-22.47,29.05,7.62.14,13.16-2.83,16.45-7.68,4.14.77,9.5,6.09,9.5,12.95,0,7.62-4.14,11.35-9.59,11.01-4.6-.29-12.69-.93-21.34-1.77-7.33-.72-18.21-2.13-20.78-2.45-2.7-.33-4.42-2.88-4.42-5.52,0-2.54,1.22-3.85,2.63-5.71,8.33-11.31,16.87-22.67,24.16-34.68-6.11-.64-10.81,6.17-12.04,8.99-.34.79-4.61,2.2-7.24,2.12-3.2-.1-7.43-4.47-7.43-13.69,0-8.37,4.99-13.14,10.72-14.11,3.48-.59,12.6-.63,18.52.05,6.21.71,14.69,3.02,17.68,4.06Z"/>
      <path class="cls-1" d="M553.67,59.72c0,8.74,1.13,15.44,1.13,17.32,0,.85-.77,1.07-1.79.98-1.57-.14-4.98-.75-8.93-1.94-4.14-1.24-7.9-2.81-9.5-3.58-.84-.41-1.32-1.18-1.32-2.31,0-1.5,1.03-9.8,1.03-15.91v-24.73c0-6.11-1.13-12.23-2.73-15.44,0-3.67,3.86-6.18,10.15-4.35,6.21,1.8,10.53,4.98,13.73,9.32,6.47,9.9,12.8,19.89,18.99,29.97v-5.36c0-6.11-.75-12.29-2.44-15.86,0-3.67,3.57-5.59,11-1.87,3.76,1.88,9.4,7.09,12.6,11.65-1.13,2.83-1.79,7.73-1.79,14.78,0,13.63,0,27.27,0,40.9,0,2.35-2.82,2.43-7.24.12-3.39-1.76-6.86-3.93-9.5-6.58-7.58-11.17-15.38-22.19-23.41-33.04v5.92Z"/>
    </g>
  </g>
</svg>